<svg width="46" height="37" viewBox="0 0 46 37" fill="none" xmlns="http://www.w3.org/2000/svg">
<path d="M45 30.3333V6.5C45 3.46767 42.5323 1 39.5 1H6.5C3.46767 1 1 3.46767 1 6.5V30.3333H21.1667V32.1667H13.8333V35.8333H32.1667V32.1667H24.8333V30.3333H45ZM4.66667 6.5C4.66667 5.48983 5.48983 4.66667 6.5 4.66667H39.5C40.5102 4.66667 41.3333 5.48983 41.3333 6.5V26.6667H4.66667V6.5ZM24.8333 13.8333H30.3333V17.5H24.8333V23H21.1667V17.5H15.6667V13.8333H21.1667V8.33333H24.8333V13.8333Z" fill="white" stroke="white"/>
</svg>
