<svg width="32" height="32" viewBox="0 0 32 32" fill="none" xmlns="http://www.w3.org/2000/svg">
<g clip-path="url(#clip0_353_1483)">
<path d="M19.0253 0.272133C19.0916 0.28384 19.158 0.295548 19.2264 0.30761C21.7577 0.762182 24.1711 1.7445 26.2522 3.26059C26.2884 3.28691 26.3246 3.31324 26.3619 3.34036C26.8748 3.71646 27.3508 4.12799 27.8097 4.56804C27.8674 4.62269 27.8674 4.62269 27.9263 4.67845C28.5594 5.28021 29.1101 5.9113 29.6164 6.6226C29.6581 6.68019 29.6581 6.68019 29.7005 6.73894C30.7176 8.15547 31.353 9.72387 31.7347 11.4166C31.746 11.4648 31.7572 11.5129 31.7688 11.5626C32.1222 13.1401 32.055 15.0227 31.6724 16.5841C31.6584 16.6413 31.6444 16.6985 31.6299 16.7575C31.1144 18.7958 30.119 20.6995 28.6812 22.241C28.5704 22.3602 28.4666 22.4826 28.3626 22.6077C25.5741 25.7943 21.1356 27.3406 17.0263 27.6348C16.3699 27.6764 15.7254 27.6987 15.0725 27.6062C14.0279 27.4521 14.0279 27.4521 13.0729 27.8291C12.8701 27.9948 12.6773 28.1674 12.4898 28.3502C12.298 28.5342 12.0899 28.6943 11.8801 28.857C11.8052 28.9173 11.7304 28.9777 11.6557 29.0382C11.3601 29.2758 11.0579 29.5047 10.7559 29.734C10.5122 29.9192 10.2707 30.1065 10.0317 30.2976C7.81022 32.0687 7.81022 32.0687 6.37813 31.9622C6.024 31.8638 5.77212 31.5721 5.56822 31.2773C5.18014 30.1139 5.7806 28.6929 6.10094 27.5797C6.12065 27.5112 6.14035 27.4426 6.16065 27.372C6.26142 27.0219 6.36303 26.6721 6.46614 26.3227C6.50422 26.1922 6.5423 26.0618 6.58037 25.9313C6.60769 25.8401 6.60769 25.8401 6.63557 25.747C6.65184 25.6909 6.66811 25.6348 6.68488 25.577C6.69938 25.5279 6.71389 25.4788 6.72883 25.4282C6.76463 25.2887 6.76463 25.2887 6.68964 25.1137C6.56009 25.0217 6.4321 24.9386 6.29636 24.8568C5.86932 24.591 5.46638 24.3029 5.06981 23.993C5.01576 23.9511 4.96171 23.9092 4.90603 23.866C4.54628 23.5799 4.20696 23.2747 3.87051 22.9618C3.82929 22.9236 3.78808 22.8855 3.74561 22.8461C2.08152 21.2811 0.874301 19.1484 0.315457 16.9421C0.300348 16.8825 0.28524 16.8229 0.269674 16.7615C0.0559116 15.8756 -0.00209615 15.0125 5.72734e-05 14.1054C0.000111859 14.0492 0.000166445 13.9929 0.000222685 13.935C0.011784 10.3142 1.56911 7.06969 4.10414 4.52134C4.49095 4.13791 4.88269 3.77454 5.31901 3.44737C5.35689 3.41823 5.39477 3.3891 5.43379 3.35908C7.48737 1.78435 9.88536 0.811317 12.4213 0.334392C12.4902 0.3213 12.5591 0.308209 12.63 0.29472C14.6788 -0.0749041 16.9774 -0.112835 19.0253 0.272133ZM11.6114 2.63799C11.5588 2.65171 11.5061 2.66542 11.4519 2.67955C9.13979 3.29578 7.17522 4.49644 5.44362 6.12452C5.37736 6.18568 5.37736 6.18568 5.30977 6.24807C4.91455 6.62529 4.5879 7.05904 4.2599 7.49423C4.2207 7.54616 4.18151 7.59808 4.14113 7.65158C3.23649 8.8989 2.61933 10.293 2.26626 11.7901C2.25518 11.8367 2.24409 11.8833 2.23268 11.9313C1.70984 14.2514 2.16139 16.833 3.32538 18.8877C3.34796 18.9281 3.37053 18.9684 3.39379 19.01C3.79341 19.718 4.26596 20.3225 4.81501 20.9228C4.92549 21.045 5.03128 21.1693 5.13601 21.2964C5.34211 21.5369 5.57341 21.7371 5.81742 21.9384C5.84997 21.9655 5.88251 21.9926 5.91605 22.0204C6.5647 22.5579 7.23306 23.0598 7.97192 23.4677C8.01972 23.4944 8.06751 23.5211 8.11675 23.5486C8.20868 23.5995 8.30127 23.6491 8.39462 23.6973C8.6714 23.85 8.81669 23.9987 8.95738 24.2819C9.0527 24.6563 8.98969 25.0071 8.88612 25.3721C8.8688 25.4341 8.8688 25.4341 8.85113 25.4974C8.81331 25.6323 8.77459 25.767 8.73584 25.9016C8.70925 25.9958 8.68271 26.09 8.65622 26.1843C8.58674 26.4309 8.51648 26.6773 8.44605 26.9236C8.37417 27.1756 8.30304 27.4278 8.23184 27.6799C8.0923 28.1737 7.95194 28.6672 7.81106 29.1605C8.06486 29.1605 8.19892 29.0332 8.39513 28.8881C8.43412 28.8598 8.4731 28.8314 8.51327 28.8022C8.82878 28.5715 9.13928 28.3343 9.44817 28.0948C9.95864 27.6991 10.4734 27.309 10.9884 26.9192C11.0414 26.8789 11.0944 26.8387 11.1489 26.7972C12.3687 25.8726 13.1212 25.4057 14.6798 25.5495C18.5632 25.8767 22.5859 24.7821 25.6292 22.312C25.7954 22.1699 25.9578 22.0254 26.1179 21.8764C26.2427 21.7605 26.3709 21.651 26.5014 21.5415C27.9733 20.2537 29.0364 18.3955 29.5541 16.5219C29.5694 16.467 29.5846 16.4122 29.6002 16.3558C30.02 14.7714 30.0309 13.0042 29.6164 11.4166C29.6054 11.373 29.5944 11.3295 29.5831 11.2846C29.1187 9.49936 28.1521 7.88251 26.8752 6.56034C26.8395 6.5231 26.8039 6.48586 26.7671 6.44749C26.2342 5.89324 25.6983 5.38443 25.0685 4.94159C25.0172 4.90488 25.0172 4.90488 24.9649 4.86742C23.0167 3.47954 20.7567 2.63872 18.4022 2.26444C18.3383 2.25399 18.3383 2.25399 18.2731 2.24334C16.0695 1.89317 13.762 2.07605 11.6114 2.63799Z" fill="white"/>
<path d="M23.7757 10.4282C24.0361 10.6056 24.2192 10.8006 24.3209 11.1053C24.3302 11.2338 24.3363 11.3625 24.3406 11.4912C24.3441 11.5929 24.3441 11.5929 24.3478 11.6967C24.3505 11.7836 24.3532 11.8705 24.3559 11.9575C24.3607 12.1053 24.3656 12.2532 24.3705 12.401C24.3747 12.5294 24.3789 12.6579 24.3832 12.7863C24.4124 12.7568 24.4416 12.7273 24.4718 12.6969C24.7756 12.3905 25.0799 12.0846 25.3844 11.7789C25.498 11.6647 25.6116 11.5504 25.725 11.4359C25.8879 11.2717 26.0511 11.1078 26.2145 10.944C26.2653 10.8926 26.3161 10.8412 26.3685 10.7882C26.4159 10.7408 26.4632 10.6935 26.5121 10.6447C26.5537 10.6028 26.5953 10.5609 26.6382 10.5177C26.8752 10.3125 27.1551 10.3375 27.4529 10.3407C27.771 10.3734 27.9343 10.5382 28.1407 10.7667C28.2796 10.9672 28.3196 11.1308 28.3276 11.3699C28.3311 11.4378 28.3311 11.4378 28.3347 11.507C28.2527 11.997 27.8547 12.3302 27.5167 12.6615C27.4645 12.7134 27.4123 12.7653 27.3585 12.8188C27.1927 12.9835 27.0262 13.1476 26.8596 13.3116C26.7467 13.4236 26.6337 13.5355 26.5209 13.6476C26.2449 13.9213 25.9684 14.1945 25.6915 14.4673C25.8487 14.7066 26.0062 14.9232 26.2016 15.1327C26.4024 15.3518 26.5949 15.5747 26.7817 15.8059C26.9612 16.0278 27.1452 16.242 27.3386 16.4518C27.5591 16.694 27.765 16.9441 27.9655 17.2028C27.9925 17.2374 28.0195 17.2721 28.0473 17.3077C28.2804 17.6124 28.3337 17.8197 28.3081 18.2029C28.1946 18.5686 28.0486 18.7323 27.7474 18.95C27.5845 19.0314 27.4544 19.0319 27.2724 19.0395C27.2099 19.0432 27.1474 19.047 27.083 19.0509C26.579 18.9571 26.258 18.5249 25.9563 18.1406C25.8807 18.0467 25.8051 17.9528 25.7294 17.859C25.6732 17.7889 25.6732 17.7889 25.6159 17.7175C25.4477 17.5102 25.2741 17.3076 25.0996 17.1055C25.0705 17.0717 25.0414 17.038 25.0113 17.0031C24.9555 16.9385 24.8997 16.8739 24.8438 16.8093C24.6898 16.6309 24.5365 16.4518 24.3832 16.2728C24.3826 16.3306 24.382 16.3883 24.3814 16.4478C24.3786 16.6641 24.3748 16.8804 24.3702 17.0967C24.3685 17.1899 24.3672 17.2831 24.3663 17.3763C24.3565 18.3483 24.3565 18.3483 24.0717 18.7632C23.762 19.0158 23.5072 19.0484 23.1113 19.0322C22.8077 18.9946 22.6376 18.8915 22.4324 18.6698C22.2848 18.4513 22.257 18.2886 22.2557 18.0313C22.2553 17.9704 22.2549 17.9095 22.2544 17.8467C22.2542 17.7799 22.2541 17.7132 22.2539 17.6444C22.2535 17.574 22.2531 17.5037 22.2527 17.4312C22.2514 17.1978 22.2507 16.9644 22.2501 16.731C22.2498 16.6514 22.2496 16.5717 22.2493 16.4896C22.2481 16.1116 22.2472 15.7335 22.2467 15.3554C22.2461 14.9196 22.2445 14.4837 22.2419 14.0479C22.2398 13.6699 22.2391 13.292 22.2388 12.9141C22.2385 12.7535 22.2378 12.593 22.2367 12.4324C22.2351 12.2077 22.2352 11.983 22.2356 11.7582C22.2348 11.692 22.234 11.6257 22.2332 11.5574C22.236 11.1645 22.2819 10.9278 22.5141 10.6072C22.8754 10.2987 23.3422 10.2782 23.7757 10.4282Z" fill="white"/>
<path d="M13.1222 10.4282C13.5469 10.7175 13.7034 11.1064 13.8854 11.5695C13.9114 11.6342 13.9375 11.6989 13.9644 11.7656C14.05 11.9787 14.1347 12.1922 14.2193 12.4057C14.2787 12.5541 14.3382 12.7025 14.3977 12.8508C14.5221 13.1613 14.6461 13.4719 14.7697 13.7826C14.944 14.2209 15.1191 14.6588 15.2945 15.0967C15.5422 15.7154 15.7895 16.3343 16.036 16.9535C16.0603 17.0145 16.0846 17.0755 16.1097 17.1384C16.1319 17.1942 16.1541 17.25 16.1769 17.3074C16.1962 17.3559 16.2155 17.4043 16.2354 17.4543C16.3511 17.7542 16.3857 18.008 16.3463 18.3274C16.1885 18.6369 15.9732 18.8562 15.661 19.0122C15.5419 19.0231 15.4223 19.0289 15.3028 19.0317C15.2388 19.034 15.1749 19.0363 15.1091 19.0387C14.857 19.0046 14.7337 18.9264 14.5396 18.7632C14.4186 18.5767 14.4186 18.5767 14.3176 18.3624C14.2841 18.2931 14.2507 18.2239 14.2161 18.1525C14.064 17.8002 13.9298 17.4403 13.792 17.0822C13.0313 17.0616 12.2706 17.0411 11.4868 17.0199C11.4251 17.2254 11.3635 17.4308 11.2999 17.6425C11.1118 18.1735 10.9044 18.6706 10.4433 19.0161C10.0744 19.1224 9.749 19.0778 9.40753 18.9072C9.17521 18.7026 9.01307 18.5492 8.97639 18.2292C8.96845 17.7525 9.0539 17.3897 9.23675 16.9521C9.26247 16.8876 9.2882 16.8231 9.31471 16.7567C9.39925 16.5458 9.4856 16.3356 9.57204 16.1254C9.63161 15.9781 9.69107 15.8307 9.75044 15.6832C9.87473 15.3753 9.99982 15.0678 10.1257 14.7605C10.2868 14.367 10.4463 13.9728 10.6054 13.5785C10.7574 13.2015 10.9104 12.8249 11.0634 12.4482C11.0924 12.3766 11.1214 12.305 11.1513 12.2312C11.2336 12.0282 11.3164 11.8255 11.3995 11.6228C11.4237 11.5631 11.4478 11.5033 11.4727 11.4417C11.7999 10.6484 11.7999 10.6484 12.1721 10.4204C12.4941 10.3132 12.8018 10.3173 13.1222 10.4282ZM12.6082 14.156C12.5054 14.4436 12.4027 14.7313 12.2967 15.0276C12.5229 15.0276 12.749 15.0276 12.9821 15.0276C12.8379 14.5876 12.8379 14.5876 12.6705 14.156C12.65 14.156 12.6294 14.156 12.6082 14.156Z" fill="white"/>
<path d="M4.75835 10.3471C4.80324 10.3467 4.84813 10.3463 4.89439 10.3459C5.04331 10.3447 5.19223 10.344 5.34116 10.3433C5.39205 10.3431 5.44294 10.3428 5.49538 10.3426C5.76491 10.3413 6.03445 10.3404 6.30398 10.3398C6.58191 10.3391 6.85981 10.337 7.13773 10.3345C7.35179 10.3329 7.56585 10.3323 7.77991 10.3321C7.88232 10.3318 7.98473 10.3311 8.08714 10.3299C8.23089 10.3284 8.37456 10.3285 8.51832 10.3289C8.59998 10.3285 8.68165 10.3282 8.76579 10.3278C9.07437 10.3687 9.32055 10.4781 9.52799 10.7208C9.71342 11.1136 9.75356 11.4535 9.61 11.868C9.45316 12.0978 9.27353 12.2995 9.00056 12.3897C8.85987 12.4145 8.72974 12.4198 8.5869 12.4188C8.5343 12.4186 8.4817 12.4184 8.4275 12.4182C8.34594 12.4174 8.34594 12.4174 8.26274 12.4166C8.20741 12.4163 8.15208 12.4161 8.09507 12.4158C7.95886 12.415 7.82266 12.414 7.68646 12.4127C7.68708 12.5226 7.68708 12.5226 7.68771 12.6348C7.6915 13.3255 7.69431 14.0162 7.69614 14.7069C7.69712 15.062 7.69844 15.4171 7.70056 15.7722C7.70259 16.1149 7.70371 16.4576 7.70419 16.8004C7.70454 16.9311 7.70521 17.0618 7.70622 17.1925C7.70758 17.3757 7.70776 17.5588 7.70768 17.742C7.70835 17.796 7.70902 17.85 7.70971 17.9056C7.70812 18.2175 7.67255 18.4306 7.49955 18.7009C7.17713 18.999 6.91609 19.0352 6.48984 19.029C6.21542 19.0025 6.0952 18.939 5.87972 18.7632C5.63556 18.4137 5.59518 18.0879 5.60223 17.6713C5.60219 17.6142 5.60216 17.557 5.60212 17.4981C5.60229 17.3108 5.60422 17.1236 5.60618 16.9363C5.60665 16.8058 5.607 16.6753 5.60725 16.5448C5.6082 16.2025 5.61065 15.8602 5.61341 15.518C5.61597 15.1682 5.6171 14.8185 5.61835 14.4688C5.62102 13.7834 5.62527 13.0981 5.63052 12.4127C5.55013 12.4149 5.46974 12.4171 5.38691 12.4193C5.27991 12.421 5.17292 12.4227 5.06592 12.4244C4.98671 12.4267 4.98671 12.4267 4.9059 12.4291C4.55715 12.4332 4.31892 12.3923 4.01069 12.226C3.80403 12.0194 3.69734 11.8267 3.63688 11.5411C3.63688 11.2112 3.67503 10.9331 3.88609 10.6695C4.19512 10.3983 4.34857 10.3502 4.75835 10.3471Z" fill="white"/>
<path d="M18.4227 10.4168C18.6816 10.5696 18.8323 10.7047 18.963 10.9808C18.9895 11.1775 18.9866 11.3723 18.9842 11.5705C18.9842 11.6589 18.9842 11.6589 18.9843 11.7491C18.9841 11.9435 18.9827 12.1378 18.9812 12.3322C18.9809 12.4672 18.9806 12.6021 18.9804 12.7371C18.9797 13.092 18.9779 13.4468 18.9758 13.8017C18.9739 14.1639 18.973 14.5261 18.9721 14.8884C18.9701 15.5989 18.9669 16.3094 18.963 17.0199C19.0233 17.0186 19.0836 17.0173 19.1458 17.016C19.3708 17.0115 19.5958 17.0086 19.8208 17.0063C19.918 17.005 20.0152 17.0033 20.1123 17.0011C20.2524 16.9981 20.3925 16.9967 20.5327 16.9956C20.5972 16.9937 20.5972 16.9937 20.6631 16.9917C20.9772 16.9916 21.1498 17.0747 21.3927 17.269C21.6309 17.5316 21.6651 17.7788 21.6592 18.1309C21.6183 18.4483 21.4843 18.6809 21.2484 18.8929C20.9463 19.088 20.5932 19.0477 20.246 19.0453C20.1713 19.0455 20.0967 19.0458 20.0198 19.046C19.8623 19.0462 19.7048 19.0457 19.5472 19.0447C19.3064 19.0434 19.0658 19.0447 18.825 19.0463C18.6717 19.0461 18.5185 19.0458 18.3653 19.0453C18.2934 19.0458 18.2216 19.0463 18.1475 19.0468C17.7684 19.0424 17.507 19.036 17.2185 18.7632C16.9199 18.4219 16.9338 18.1139 16.9371 17.673C16.9366 17.6013 16.9362 17.5296 16.9358 17.4557C16.9347 17.219 16.9354 16.9823 16.9362 16.7456C16.9361 16.5809 16.9358 16.4162 16.9355 16.2516C16.9351 15.9066 16.9356 15.5616 16.9368 15.2166C16.9382 14.8183 16.9378 14.42 16.9364 14.0217C16.9351 13.6378 16.9352 13.2539 16.936 12.87C16.9361 12.707 16.9359 12.544 16.9354 12.3809C16.9347 12.1531 16.9357 11.9252 16.9371 11.6974C16.9363 11.5963 16.9363 11.5963 16.9355 11.4933C16.9398 11.1157 16.9665 10.8948 17.2185 10.6072C17.5511 10.3152 18.0105 10.2502 18.4227 10.4168Z" fill="white"/>
</g>
<defs>
<clipPath id="clip0_353_1483">
<rect width="32" height="32" fill="white"/>
</clipPath>
</defs>
</svg>
