<svg width="40" height="40" viewBox="0 0 40 40" fill="none" xmlns="http://www.w3.org/2000/svg">
<path d="M10.0013 3.33348H17.5296C17.362 3.45051 17.2032 3.57975 17.0546 3.72015L8.80464 11.9702C8.49124 12.2835 8.31517 12.7086 8.31517 13.1518C8.31517 13.595 8.49124 14.0201 8.80464 14.3335C9.11803 14.6469 9.54309 14.8229 9.9863 14.8229C10.4295 14.8229 10.8546 14.6469 11.168 14.3335L18.3346 7.16682V38.2818C18.3346 38.7238 18.5102 39.1478 18.8228 39.4603C19.1354 39.7729 19.5593 39.9485 20.0013 39.9485C20.4433 39.9485 20.8673 39.7729 21.1798 39.4603C21.4924 39.1478 21.668 38.7238 21.668 38.2818V7.15515L28.8346 14.3335C29.149 14.6371 29.57 14.8051 30.007 14.8013C30.444 14.7975 30.862 14.6222 31.171 14.3132C31.48 14.0042 31.6553 13.5861 31.6591 13.1492C31.6629 12.7122 31.4949 12.2912 31.1913 11.9768L22.9413 3.72682C22.7927 3.58641 22.6339 3.45717 22.4663 3.34015H30.0013C30.4433 3.34015 30.8673 3.16456 31.1798 2.852C31.4924 2.53944 31.668 2.11551 31.668 1.67348C31.668 1.23146 31.4924 0.807535 31.1798 0.494975C30.8673 0.182414 30.4433 0.0068175 30.0013 0.0068175H10.0013C9.55928 0.0068175 9.13535 0.182414 8.82279 0.494975C8.51023 0.807535 8.33464 1.23146 8.33464 1.67348C8.33464 2.11551 8.51023 2.53944 8.82279 2.852C9.13535 3.16456 9.55928 3.34015 10.0013 3.34015V3.33348Z" fill="white"/>
</svg>
