<svg width="32" height="32" viewBox="0 0 32 32" fill="none" xmlns="http://www.w3.org/2000/svg">
<g clip-path="url(#clip0_353_1476)">
<path d="M17.333 1.33327C17.333 0.979643 17.4735 0.640505 17.7235 0.390456C17.9736 0.140408 18.3127 -6.79753e-05 18.6663 -6.79753e-05C22.2014 0.00381415 25.5905 1.40982 28.0901 3.90946C30.5898 6.40911 31.9958 9.79824 31.9997 13.3333C31.9997 13.6869 31.8592 14.026 31.6091 14.2761C31.3591 14.5261 31.0199 14.6666 30.6663 14.6666C30.3127 14.6666 29.9736 14.5261 29.7235 14.2761C29.4735 14.026 29.333 13.6869 29.333 13.3333C29.3298 10.5053 28.205 7.794 26.2053 5.7943C24.2056 3.7946 21.4943 2.66977 18.6663 2.6666C18.3127 2.6666 17.9736 2.52612 17.7235 2.27607C17.4735 2.02603 17.333 1.68689 17.333 1.33327ZM18.6663 7.99993C20.0808 7.99993 21.4374 8.56184 22.4376 9.56203C23.4378 10.5622 23.9997 11.9188 23.9997 13.3333C23.9997 13.6869 24.1401 14.026 24.3902 14.2761C24.6402 14.5261 24.9794 14.6666 25.333 14.6666C25.6866 14.6666 26.0257 14.5261 26.2758 14.2761C26.5258 14.026 26.6663 13.6869 26.6663 13.3333C26.6642 11.2122 25.8207 9.17858 24.3208 7.67875C22.821 6.17892 20.7874 5.33538 18.6663 5.33327C18.3127 5.33327 17.9736 5.47374 17.7235 5.72379C17.4735 5.97384 17.333 6.31298 17.333 6.6666C17.333 7.02022 17.4735 7.35936 17.7235 7.60941C17.9736 7.85946 18.3127 7.99993 18.6663 7.99993ZM30.7903 22.3186C31.563 23.0934 31.9969 24.143 31.9969 25.2373C31.9969 26.3315 31.563 27.3811 30.7903 28.1559L29.577 29.5546C18.657 40.0093 -7.91634 13.4426 2.37699 2.48793L3.91032 1.1546C4.68601 0.403502 5.72623 -0.0120025 6.80593 -0.00202152C7.88562 0.0079595 8.91798 0.442623 9.67966 1.20793C9.72099 1.24927 12.1917 4.4586 12.1917 4.4586C12.9248 5.22877 13.3329 6.25184 13.3311 7.31514C13.3294 8.37843 12.9179 9.40016 12.1823 10.1679L10.6383 12.1093C11.4928 14.1854 12.7491 16.0723 14.335 17.6614C15.9209 19.2505 17.8052 20.5106 19.8797 21.3693L21.833 19.8159C22.6009 19.0809 23.6224 18.6699 24.6854 18.6684C25.7484 18.6669 26.7711 19.075 27.541 19.8079C27.541 19.8079 30.749 22.2773 30.7903 22.3186ZM28.9557 24.2573C28.9557 24.2573 25.765 21.8026 25.7237 21.7613C25.449 21.4889 25.0778 21.3361 24.691 21.3361C24.3042 21.3361 23.933 21.4889 23.6583 21.7613C23.6223 21.7986 20.933 23.9413 20.933 23.9413C20.7518 24.0855 20.5361 24.1801 20.3072 24.2156C20.0783 24.2512 19.8441 24.2264 19.6277 24.1439C16.9403 23.1434 14.4993 21.5769 12.4701 19.5507C10.4409 17.5245 8.87086 15.0858 7.86632 12.3999C7.77725 12.1805 7.74822 11.9414 7.78219 11.7071C7.81617 11.4727 7.91194 11.2517 8.05966 11.0666C8.05966 11.0666 10.2023 8.37593 10.2383 8.34127C10.5107 8.06658 10.6635 7.69542 10.6635 7.3086C10.6635 6.92178 10.5107 6.55062 10.2383 6.27593C10.197 6.23593 7.74232 3.0426 7.74232 3.0426C7.46352 2.79261 7.09966 2.65873 6.72532 2.66839C6.35098 2.67806 5.99451 2.83055 5.72899 3.0946L4.19566 4.42793C-3.32701 13.4733 19.701 35.2239 27.6277 27.7333L28.8423 26.3333C29.127 26.0696 29.2979 25.7056 29.3191 25.3182C29.3402 24.9308 29.2099 24.5503 28.9557 24.2573Z" fill="white"/>
</g>
<defs>
<clipPath id="clip0_353_1476">
<rect width="32" height="32" fill="white"/>
</clipPath>
</defs>
</svg>
