<svg width="32" height="32" viewBox="0 0 32 32" fill="none" xmlns="http://www.w3.org/2000/svg">
<g clip-path="url(#clip0_353_1480)">
<path d="M16 2.88267C20.272 2.88267 20.7787 2.89867 22.4653 2.976C24.2093 3.056 26.0053 3.45333 27.276 4.724C28.5587 6.00667 28.944 7.78533 29.024 9.53467C29.1013 11.2213 29.1173 11.728 29.1173 16C29.1173 20.272 29.1013 20.7787 29.024 22.4653C28.9453 24.2 28.5387 26.0133 27.276 27.276C25.9933 28.5587 24.216 28.944 22.4653 29.024C20.7787 29.1013 20.272 29.1173 16 29.1173C11.728 29.1173 11.2213 29.1013 9.53467 29.024C7.81333 28.9453 5.976 28.5293 4.724 27.276C3.448 26 3.056 24.204 2.976 22.4653C2.89867 20.7787 2.88267 20.272 2.88267 16C2.88267 11.728 2.89867 11.2213 2.976 9.53467C3.05467 7.80667 3.46533 5.98267 4.724 4.724C6.004 3.444 7.78933 3.056 9.53467 2.976C11.2213 2.89867 11.728 2.88267 16 2.88267ZM16 0C11.6547 0 11.1093 0.0186667 9.40267 0.096C6.92933 0.209333 4.47333 0.897333 2.68533 2.68533C0.890667 4.48 0.209333 6.93067 0.096 9.40267C0.0186667 11.1093 0 11.6547 0 16C0 20.3453 0.0186667 20.8907 0.096 22.5973C0.209333 25.068 0.9 27.5307 2.68533 29.3147C4.47867 31.108 6.93333 31.7907 9.40267 31.904C11.1093 31.9813 11.6547 32 16 32C20.3453 32 20.8907 31.9813 22.5973 31.904C25.0693 31.7907 27.528 31.1013 29.3147 29.3147C31.1107 27.5187 31.7907 25.0693 31.904 22.5973C31.9813 20.8907 32 20.3453 32 16C32 11.6547 31.9813 11.1093 31.904 9.40267C31.7907 6.92933 31.1013 4.472 29.3147 2.68533C27.524 0.894666 25.0627 0.208 22.5973 0.096C20.8907 0.0186667 20.3453 0 16 0Z" fill="white"/>
<path d="M16.0002 7.78394C11.4628 7.78394 7.78418 11.4626 7.78418 15.9999C7.78418 20.5373 11.4628 24.2159 16.0002 24.2159C20.5375 24.2159 24.2162 20.5373 24.2162 15.9999C24.2162 11.4626 20.5375 7.78394 16.0002 7.78394ZM16.0002 21.3333C13.0548 21.3333 10.6668 18.9453 10.6668 15.9999C10.6668 13.0546 13.0548 10.6666 16.0002 10.6666C18.9455 10.6666 21.3335 13.0546 21.3335 15.9999C21.3335 18.9453 18.9455 21.3333 16.0002 21.3333Z" fill="white"/>
<path d="M24.5411 9.37857C25.6015 9.37857 26.4611 8.51896 26.4611 7.45857C26.4611 6.39819 25.6015 5.53857 24.5411 5.53857C23.4807 5.53857 22.6211 6.39819 22.6211 7.45857C22.6211 8.51896 23.4807 9.37857 24.5411 9.37857Z" fill="white"/>
</g>
<defs>
<clipPath id="clip0_353_1480">
<rect width="32" height="32" fill="white"/>
</clipPath>
</defs>
</svg>
