<svg width="51" height="40" viewBox="0 0 51 40" fill="none" xmlns="http://www.w3.org/2000/svg">
<path d="M17.6797 1.08399C17.5918 1.15235 13.6074 6.68946 8.82227 13.3887L0.121094 25.5664L0.775391 26.0547C1.13672 26.3184 1.45898 26.5332 1.48828 26.543C1.53711 26.543 17.8945 3.73047 18.3926 2.97852C18.4316 2.91992 18.8223 3.01758 19.418 3.23242C21.3809 3.95508 22.8848 4.21875 25.1113 4.21875C27.3379 4.21875 28.8418 3.95508 30.8047 3.23242C31.4004 3.01758 31.791 2.91992 31.8301 2.97852C32.3281 3.73047 48.6855 26.543 48.7344 26.543C48.7637 26.5332 49.0859 26.3184 49.4473 26.0547L50.1016 25.5664L41.5469 13.584C36.8398 6.98242 32.8555 1.44531 32.6992 1.26953C32.3184 0.869143 31.9863 0.859377 31.1367 1.25C30.1797 1.67969 29.2031 1.99219 27.9922 2.2461C27.0938 2.43164 26.6152 2.47071 25.1113 2.47071C23.6074 2.47071 23.1289 2.43164 22.2305 2.2461C21.0195 1.99219 20.043 1.67969 19.0859 1.25C18.4121 0.937502 17.9434 0.888674 17.6797 1.08399Z" fill="black"/>
<path d="M14.5743 10.3515C14.4474 10.7421 14.3204 11.1132 14.3009 11.1815C14.2716 11.2499 14.5548 11.3866 15.0626 11.5429C15.5118 11.6796 15.8829 11.787 15.8927 11.7675C15.9708 11.6796 16.3224 10.2147 16.2833 10.1464C16.254 10.1073 15.9611 9.99013 15.6193 9.89248C15.2872 9.80458 14.965 9.70693 14.9064 9.6874C14.8478 9.6581 14.7013 9.95107 14.5743 10.3515Z" fill="black"/>
<path d="M34.6816 9.86328C34.33 9.9707 34.0077 10.0977 33.9589 10.1367C33.9101 10.1953 33.9589 10.5469 34.0956 11.0156C34.2714 11.6309 34.3495 11.7871 34.4765 11.748C34.5644 11.7285 34.9257 11.6113 35.287 11.5039L35.9413 11.3086L35.6874 10.5469C35.5507 10.1367 35.414 9.76562 35.3749 9.73632C35.3456 9.70703 35.0331 9.76562 34.6816 9.86328Z" fill="black"/>
<path d="M17.7484 11.3086C17.6507 11.748 17.6116 12.1387 17.6507 12.1875C17.7386 12.2656 18.7738 12.4805 19.057 12.4805C19.1839 12.4805 19.2523 12.334 19.3402 11.8066C19.4964 10.8105 19.5159 10.8496 18.8909 10.7227C18.5784 10.6641 18.2366 10.5859 18.1195 10.5566C17.9339 10.5176 17.9046 10.5859 17.7484 11.3086Z" fill="black"/>
<path d="M31.4004 10.6932L30.707 10.8397L30.8535 11.6307C30.9316 12.0702 31.0098 12.4511 31.0293 12.4706C31.0879 12.539 32.5332 12.2655 32.5918 12.1776C32.6699 12.0409 32.3086 10.5272 32.2012 10.537C32.1426 10.5468 31.7812 10.6151 31.4004 10.6932Z" fill="black"/>
<path d="M21.0781 11.2695C21.0488 11.377 20.9902 11.748 20.9512 12.1094C20.8828 12.8613 20.8242 12.8125 21.957 12.9199L22.5527 12.9785L22.6211 12.1387C22.6602 11.6797 22.6797 11.2793 22.6602 11.2598C22.6309 11.2402 22.2793 11.1914 21.8691 11.1523C21.1953 11.0938 21.1269 11.1035 21.0781 11.2695Z" fill="black"/>
<path d="M27.9238 11.1816C27.5625 11.2207 27.5527 11.2305 27.5527 11.6406C27.5527 11.875 27.582 12.2656 27.6113 12.5195L27.6797 12.9785L28.2754 12.9199C29.3887 12.8125 29.3398 12.8418 29.2715 12.207C29.1445 11.0938 29.1445 11.1133 28.6953 11.1328C28.4707 11.1426 28.1191 11.1621 27.9238 11.1816Z" fill="black"/>
<path d="M24.291 11.9043C24.2617 12.2363 24.2324 12.6367 24.2324 12.7832V13.0664H25.0527C25.5117 13.0664 25.9023 13.0371 25.9219 12.9883C25.9414 12.9492 25.9414 12.5586 25.9121 12.1094L25.873 11.3086H25.1113H24.3594L24.291 11.9043Z" fill="black"/>
<path d="M10.0332 17.0997C9.50583 18.0372 9.49606 17.959 10.3261 18.3692C10.7363 18.5743 11.0879 18.7305 11.0976 18.711C11.1074 18.6915 11.2832 18.3399 11.4687 17.92L11.8203 17.168L11.459 16.9825C11.2636 16.8848 10.9316 16.7286 10.7363 16.6504L10.3652 16.4942L10.0332 17.0997Z" fill="black"/>
<path d="M39.1055 16.8262L38.3926 17.1583L38.7441 17.92C38.9395 18.3399 39.1055 18.6915 39.125 18.711C39.1348 18.7305 39.4863 18.5743 39.8867 18.379L40.6191 18.0079L40.2383 17.2462C40.0234 16.8262 39.8477 16.4844 39.8281 16.4844C39.8184 16.4942 39.4863 16.6407 39.1055 16.8262Z" fill="black"/>
<path d="M12.9919 18.5547C12.8259 18.9746 12.7087 19.3555 12.7478 19.3848C12.7868 19.4238 13.1384 19.5703 13.5388 19.7168L14.2615 19.9805L14.5251 19.1992C14.6618 18.7695 14.74 18.3789 14.7009 18.3398C14.6521 18.291 14.32 18.1445 13.9587 18.0176L13.3044 17.7832L12.9919 18.5547Z" fill="black"/>
<path d="M36.2444 18.0176C35.8929 18.1445 35.5706 18.291 35.5218 18.3398C35.4827 18.3789 35.5608 18.7695 35.6976 19.1992L35.9612 19.9805L36.6839 19.7168C37.0843 19.5703 37.4358 19.4336 37.4651 19.4043C37.5042 19.3555 36.9476 17.7344 36.8987 17.7637C36.889 17.7734 36.596 17.8809 36.2444 18.0176Z" fill="black"/>
<path d="M16.1268 19.6093C15.9999 20.0389 15.9315 20.4198 15.9608 20.4491C16.0194 20.5175 17.5038 20.8983 17.5331 20.8593C17.6308 20.7323 17.8749 19.2675 17.8163 19.2186C17.7479 19.16 16.5272 18.828 16.3905 18.828C16.371 18.828 16.2538 19.1796 16.1268 19.6093Z" fill="black"/>
<path d="M33.0511 19.0038C32.7191 19.1014 32.4164 19.1991 32.3871 19.2382C32.3285 19.287 32.6019 20.7323 32.6898 20.8593C32.7093 20.8983 34.1937 20.5175 34.2621 20.4589C34.35 20.371 33.8812 18.828 33.764 18.8378C33.7054 18.8378 33.3832 18.9159 33.0511 19.0038Z" fill="black"/>
<path d="M19.3689 20.1953C19.1833 21.2598 19.1735 21.2305 19.7693 21.3086C20.0427 21.3477 20.4138 21.3965 20.5896 21.4258L20.8923 21.4844L20.9704 20.7129C21.0193 20.293 21.0583 19.9121 21.0583 19.8535C21.0583 19.7754 20.0329 19.541 19.5935 19.5215C19.5349 19.5117 19.4372 19.8242 19.3689 20.1953Z" fill="black"/>
<path d="M29.7696 19.6387C29.125 19.7363 29.1055 19.7461 29.1543 19.9902C29.1836 20.127 29.2325 20.5273 29.2715 20.8594L29.3301 21.4844L29.6426 21.4258C29.8086 21.3965 30.1797 21.3477 30.4629 21.3086C31.0391 21.2305 31.0391 21.25 30.8438 20.1953C30.7071 19.4824 30.7364 19.4922 29.7696 19.6387Z" fill="black"/>
<path d="M22.6307 20.7324C22.5916 21.2012 22.5721 21.5918 22.5916 21.6113C22.6112 21.6211 22.9823 21.6602 23.412 21.6895L24.203 21.7383L24.2713 20.9082C24.3104 20.4492 24.3299 20.0684 24.3104 20.0488C24.2909 20.0391 23.9295 19.9902 23.4901 19.9512L22.6991 19.8828L22.6307 20.7324Z" fill="black"/>
<path d="M26.3418 19.9706L25.8633 20.0097L25.9316 20.8593C25.9707 21.328 26.0098 21.7089 26.0195 21.7187C26.0293 21.7284 26.4102 21.7089 26.8594 21.6796L27.6699 21.6308L27.6113 21.1327C27.582 20.8593 27.5527 20.4687 27.5527 20.2636C27.5527 19.8632 27.6113 19.8729 26.3418 19.9706Z" fill="black"/>
<path d="M5.73633 23.3594C5.49219 23.7109 5.28711 24.0137 5.28711 24.043C5.28711 24.0723 5.60938 24.3164 6 24.5801L6.71289 25.0586L7.17188 24.3262C7.43555 23.916 7.63086 23.584 7.61133 23.5645C7.28906 23.3203 6.35156 22.7344 6.27344 22.7344C6.22461 22.7344 5.98047 23.0176 5.73633 23.3594Z" fill="black"/>
<path d="M42.7091 23.5547C42.377 23.7891 42.0743 24.0039 42.045 24.0332C41.9767 24.1016 42.8067 25.4688 42.9142 25.4688C42.9923 25.4688 44.3497 24.5801 44.3497 24.5215C44.3497 24.4824 43.3634 23.125 43.3438 23.1348C43.3341 23.1348 43.0509 23.3301 42.7091 23.5547Z" fill="black"/>
<path d="M18.5393 23.6523C16.8792 24.1308 15.4534 25.5078 14.9456 27.1191C14.6624 28.0273 14.6624 29.3848 14.9553 30.2539C15.2581 31.1426 15.5901 31.6797 16.2835 32.3535C17.8948 33.9453 20.1799 34.3066 22.26 33.3008C23.0217 32.9394 24.1253 31.8359 24.5159 31.0644C25.9221 28.2617 24.6233 24.9219 21.7034 23.7988C21.01 23.5254 19.2522 23.4473 18.5393 23.6523ZM20.9124 25.3906C21.8401 25.6738 22.5628 26.2891 23.0217 27.207C23.2757 27.6953 23.3049 27.8711 23.3049 28.6426C23.3049 29.4043 23.2659 29.5996 23.0217 30.1269C22.6995 30.8301 22.0745 31.4648 21.3518 31.8164C20.9417 32.0215 20.7268 32.0605 19.9358 32.0605C19.135 32.0605 18.9299 32.0215 18.4514 31.7969C17.7874 31.4844 17.1233 30.8496 16.8303 30.2441C15.4924 27.4902 17.9924 24.5215 20.9124 25.3906Z" fill="black"/>
<path d="M9.02734 24.6191C8.85156 24.834 8.31445 25.8301 8.31445 25.9277C8.31445 26.0156 9.58398 26.7383 9.75 26.7383C9.82813 26.7383 10.5996 25.2734 10.541 25.2246C10.5215 25.2148 10.1992 25.0391 9.80859 24.8535C9.28125 24.5801 9.0957 24.5312 9.02734 24.6191Z" fill="black"/>
<path d="M39.7793 25.2832C39.3887 25.498 39.0762 25.7129 39.0762 25.7715C39.0762 25.8203 39.2324 26.1719 39.418 26.543L39.7598 27.2266L40.541 26.8359C40.9707 26.6211 41.3223 26.4258 41.3223 26.4062C41.3223 26.377 40.5605 24.9902 40.502 24.9121C40.4922 24.9023 40.1699 25.0684 39.7793 25.2832Z" fill="black"/>
<path d="M11.9764 26.2793C11.908 26.4551 11.7518 26.8066 11.6444 27.0703C11.5272 27.334 11.4491 27.5586 11.4588 27.5781C11.4979 27.6074 12.992 28.2031 13.0409 28.2031C13.0897 28.2031 13.7049 26.6211 13.6659 26.5918C13.6463 26.582 13.2948 26.4355 12.8748 26.2695L12.1131 25.9668L11.9764 26.2793Z" fill="black"/>
<path d="M36.5862 26.709C36.2639 26.8457 35.9807 26.9629 35.9612 26.9824C35.9319 27.0215 36.4397 28.5938 36.4885 28.5938C36.5081 28.5938 36.8791 28.457 37.3088 28.291C38.1975 27.9492 38.1682 28.0469 37.7581 27.0605C37.4944 26.3867 37.3967 26.3672 36.5862 26.709Z" fill="black"/>
<path d="M0.814453 27.8418L0.208984 28.457L0.824219 29.0625L1.43945 29.668L1.99609 29.1016C2.29883 28.7891 2.55273 28.4961 2.55273 28.4375C2.55273 28.3887 2.29883 28.0957 1.98633 27.7832L1.41992 27.2266L0.814453 27.8418Z" fill="black"/>
<path d="M33.3535 27.7246L32.6602 27.9199L32.8457 28.7207C32.9531 29.1601 33.0605 29.541 33.0801 29.5605C33.1094 29.5898 34.7891 29.1797 34.7793 29.1406C34.6328 28.5058 34.2812 27.5683 34.1836 27.5488C34.1055 27.539 33.7344 27.6172 33.3535 27.7246Z" fill="black"/>
<path d="M47.7969 28.1836L47.1816 28.7402L47.7578 29.3652L48.3242 30L48.7051 29.6973C48.9102 29.5312 49.2129 29.2578 49.3789 29.0918L49.6621 28.7891L49.0859 28.2031C48.7637 27.8809 48.4805 27.6172 48.4512 27.6172C48.4219 27.627 48.1289 27.8711 47.7969 28.1836Z" fill="black"/>
<path d="M29.8671 28.3984C29.6034 28.4473 29.3788 28.4961 29.3691 28.5156C29.3593 28.5352 29.3886 28.9062 29.4374 29.3457C29.5253 30.1367 29.5351 30.1562 29.789 30.1562C30.1015 30.1562 31.1757 29.9805 31.2343 29.9219C31.2538 29.9023 31.2245 29.5312 31.1562 29.0918L31.039 28.3008L30.6874 28.3105C30.4921 28.3203 30.121 28.3594 29.8671 28.3984Z" fill="black"/>
<path d="M26.6543 28.6621L25.9902 28.7012V29.5898V30.4785L26.3613 30.4102C26.5566 30.3809 26.957 30.3516 27.2402 30.3516H27.748V29.9805C27.748 29.1602 27.6309 28.5937 27.4648 28.6133C27.377 28.623 27.0156 28.6426 26.6543 28.6621Z" fill="black"/>
<path d="M3.34375 30.1758C3.07031 30.5176 2.8457 30.8203 2.8457 30.8496C2.8457 30.9082 4.07617 31.9141 4.1543 31.9141C4.17383 31.9141 4.41797 31.6211 4.70117 31.2695C5.0918 30.7715 5.17969 30.6055 5.0918 30.498C4.95508 30.3418 3.96875 29.5703 3.90039 29.5703C3.87109 29.5703 3.61719 29.8438 3.34375 30.1758Z" fill="black"/>
<path d="M45.3746 30.2637C44.5348 30.9375 44.5543 30.8398 45.0914 31.5625C45.3453 31.9141 45.5993 32.207 45.6481 32.207C45.6969 32.207 46.0192 31.9824 46.3707 31.709C47.0739 31.1426 47.0739 31.2793 46.3512 30.3613C46.1364 30.0977 45.9411 29.873 45.9118 29.873C45.8825 29.873 45.6481 30.0488 45.3746 30.2637Z" fill="black"/>
<path d="M6.12695 32.256C5.88281 32.6075 5.67773 32.9396 5.67773 32.9786C5.67773 33.0665 6.81055 33.8282 7.01562 33.8868C7.08398 33.9064 7.32812 33.5939 7.57227 33.213L8.01172 32.5001L7.32812 32.0607C6.95703 31.8165 6.63477 31.6212 6.60547 31.6212C6.58594 31.6212 6.37109 31.9044 6.12695 32.256Z" fill="black"/>
<path d="M42.494 32.3146C42.1425 32.5392 41.8397 32.7345 41.8202 32.754C41.7909 32.7736 42.5038 34.0529 42.6405 34.2384C42.6601 34.2579 43.9296 33.4865 44.1347 33.3204C44.1835 33.2911 43.2558 31.9142 43.1874 31.9142C43.1581 31.9142 42.8456 32.0997 42.494 32.3146Z" fill="black"/>
<path d="M9.04657 34.1113C8.84149 34.5117 8.68524 34.8535 8.70478 34.873C8.85126 34.9902 10.0622 35.625 10.1501 35.625C10.2477 35.625 10.9899 34.1602 10.9313 34.1113C10.8825 34.0723 9.49579 33.3789 9.46649 33.3789C9.44696 33.3789 9.26142 33.7109 9.04657 34.1113Z" fill="black"/>
<path d="M39.4473 34.0136L38.793 34.3554L39.1348 35.1073C39.3301 35.5272 39.4961 35.8788 39.5059 35.8886C39.5156 35.9081 39.8867 35.7421 40.3164 35.537L41.1074 35.1562L40.7266 34.414C40.5117 34.0038 40.2773 33.6718 40.2188 33.6718C40.1504 33.6815 39.8086 33.828 39.4473 34.0136Z" fill="black"/>
<path d="M12.3672 35.1563C12.2988 35.3321 12.1426 35.6934 12.0352 35.9473L11.8301 36.4161L12.0547 36.4942C12.1719 36.543 12.543 36.6895 12.8848 36.8262C13.3242 37.0118 13.5098 37.0508 13.5391 36.963C13.5586 36.8946 13.6953 36.543 13.832 36.1719C13.9688 35.8008 14.0469 35.459 14.0078 35.4298C13.9297 35.3614 12.6504 34.8438 12.5527 34.8438C12.5234 34.8438 12.4453 34.9903 12.3672 35.1563Z" fill="black"/>
<path d="M36.3906 35.3223C36.0195 35.4688 35.707 35.625 35.707 35.6738C35.707 35.8984 36.1953 37.1875 36.2832 37.1875C36.5176 37.1875 37.8066 36.6406 37.8066 36.543C37.8066 36.3477 37.2598 35.0977 37.1621 35.0781C37.1133 35.0586 36.7715 35.1758 36.3906 35.3223Z" fill="black"/>
<path d="M15.4434 36.787C15.3165 37.2265 15.2383 37.5976 15.2579 37.6171C15.336 37.6855 16.8399 38.0761 16.879 38.0273C16.9278 37.9882 17.2989 36.6113 17.2989 36.4843C17.2989 36.4062 16.5274 36.162 15.9903 36.0546L15.668 35.996L15.4434 36.787Z" fill="black"/>
<path d="M33.1678 36.3184C32.7967 36.4258 32.4745 36.5332 32.4549 36.5527C32.4354 36.5723 32.494 36.9434 32.5819 37.373C32.7186 37.9688 32.7967 38.1641 32.9139 38.1641C33.0995 38.1641 34.3788 37.8223 34.4471 37.7539C34.5253 37.666 34.0565 36.1133 33.9491 36.123C33.9002 36.123 33.5487 36.2109 33.1678 36.3184Z" fill="black"/>
<path d="M18.861 37.3438C18.8024 37.666 18.7341 38.0371 18.7048 38.1836C18.656 38.3984 18.695 38.457 18.8806 38.4961C19.1833 38.5645 20.2478 38.75 20.3356 38.75C20.3942 38.75 20.6188 37.4805 20.6188 37.1484C20.6188 37.0703 20.4528 36.9922 20.2087 36.9629C19.9743 36.9336 19.6032 36.875 19.3786 36.8359L18.9782 36.7773L18.861 37.3438Z" fill="black"/>
<path d="M29.6621 37.0214L29.0957 37.1191L29.1543 37.8125C29.2422 38.7207 29.291 38.8671 29.4863 38.8085C29.5742 38.7792 29.916 38.7304 30.2383 38.6914C30.5605 38.6621 30.873 38.6035 30.9316 38.5644C31 38.5253 30.9902 38.2617 30.8926 37.6953C30.7266 36.7871 30.7949 36.8261 29.6621 37.0214Z" fill="black"/>
<path d="M22.2407 38.0762C22.2016 38.5156 22.1918 38.8965 22.2211 38.916C22.2504 38.9453 22.6411 38.9844 23.0903 39.0137L23.9106 39.0723L23.9692 38.2617C24.0082 37.8223 24.0082 37.4121 23.9789 37.373C23.9497 37.3242 23.559 37.2852 23.1196 37.2852H22.309L22.2407 38.0762Z" fill="black"/>
<path d="M25.9219 37.3535C25.707 37.3926 25.6973 37.4414 25.6973 38.2227V39.043H26.5762H27.4551V38.3789C27.4551 37.3047 27.4355 37.2852 26.7324 37.2949C26.4102 37.3047 26.0391 37.334 25.9219 37.3535Z" fill="black"/>
</svg>
