<svg width="51" height="50" viewBox="0 0 51 50" fill="none" xmlns="http://www.w3.org/2000/svg">
<g clip-path="url(#clip0_353_1404)">
<path d="M16.8893 47.9168H25.2227V50.0001H16.8893V47.9168ZM48.6435 9.24176L27.2956 30.6709L25.9393 36.7563C20.5477 42.173 13.2081 45.5334 5.66432 45.8334H0.222656V42.5251L41.0081 1.5876C43.0477 -0.458236 46.6039 -0.458236 48.6435 1.5876C50.7456 3.7001 50.7456 7.13343 48.6435 9.24176ZM25.1977 30.5043L19.9956 25.6293L2.30599 43.3876V43.7501H5.62057C12.4997 43.4751 19.0414 40.623 24.0372 35.7105L25.1977 30.5043ZM47.1664 3.05635C45.9143 1.80218 43.7331 1.8001 42.481 3.05635L21.4664 24.1543L26.3185 28.7001L47.1685 7.77093C48.4622 6.47093 48.4622 4.35635 47.1685 3.05426L47.1664 3.05635ZM41.8893 47.9168V50.0001H50.2227V47.9168H41.8893ZM29.3893 50.0001H37.7227V47.9168H29.3893V50.0001Z" fill="black"/>
</g>
<defs>
<clipPath id="clip0_353_1404">
<rect width="50" height="50" fill="white" transform="translate(0.222656)"/>
</clipPath>
</defs>
</svg>
