<svg width="50" height="50" viewBox="0 0 50 50" fill="none" xmlns="http://www.w3.org/2000/svg">
<g clip-path="url(#clip0_353_1407)">
<path d="M18.75 25C25.6437 25 31.25 19.3937 31.25 12.5C31.25 5.60625 25.6437 0 18.75 0C11.8562 0 6.25 5.60625 6.25 12.5C6.25 19.3937 11.8562 25 18.75 25ZM18.75 2.08333C24.4937 2.08333 29.1667 6.75625 29.1667 12.5C29.1667 18.2437 24.4937 22.9167 18.75 22.9167C13.0062 22.9167 8.33333 18.2437 8.33333 12.5C8.33333 6.75625 13.0062 2.08333 18.75 2.08333ZM9.375 29.1667H22.9167V31.25H9.375C5.35417 31.25 2.08333 34.5208 2.08333 38.5417V50H0V38.5417C0 33.3729 4.20625 29.1667 9.375 29.1667ZM45.8333 22.9167H31.25C28.9521 22.9167 27.0833 24.7854 27.0833 27.0833V50H50V27.0833C50 24.7854 48.1312 22.9167 45.8333 22.9167ZM47.9167 47.9167H29.1667V27.0833C29.1667 25.9354 30.1 25 31.25 25H45.8333C46.9833 25 47.9167 25.9354 47.9167 27.0833V47.9167ZM33.3333 29.1667H43.75V31.25H33.3333V29.1667ZM33.3333 35.4229H43.75V37.5062H33.3333V35.4229ZM33.3333 41.6667H43.75V43.75H33.3333V41.6667Z" fill="black"/>
</g>
<defs>
<clipPath id="clip0_353_1407">
<rect width="50" height="50" fill="white"/>
</clipPath>
</defs>
</svg>
