<svg width="51" height="50" viewBox="0 0 51 50" fill="none" xmlns="http://www.w3.org/2000/svg">
<g clip-path="url(#clip0_353_1406)">
<path d="M42.3244 41.2729L42.5244 41.6021L41.8786 45.6208C41.4702 48.1583 39.3077 50.0021 36.7369 50.0021H25.5557V47.9187H36.7369C38.2807 47.9187 39.5765 46.8125 39.8223 45.2896L40.3452 42.0292C39.6015 40.7917 37.9869 37.9979 37.8432 36.8646C37.5098 34.2333 36.164 32.4542 33.6077 31.2708L33.1119 31.025C32.1515 30.5396 30.1536 29.5271 28.5036 29.2437L27.6369 29.0958V23.025C25.2619 23.5083 23.4702 25.6125 23.4702 28.1292V30.4583L22.9869 30.7646C17.3911 34.3062 10.9702 39.6938 10.9702 50.0042H8.88691C8.88691 38.8792 15.8765 32.8833 21.3869 29.3146V28.1292C21.3869 24.1083 24.6577 20.8375 28.6786 20.8375H29.7202V27.3833C31.4265 27.8375 33.1536 28.7146 34.0536 29.1687L34.4848 29.3833C37.7098 30.8771 39.4848 33.2417 39.9098 36.6062C39.9807 37.1521 41.214 39.4604 42.3244 41.2729ZM45.9161 12.5C43.8786 12.5 41.9619 11.6021 40.6577 10.0354L40.1807 9.4625C38.4786 7.42083 35.9786 6.25 33.3223 6.25H31.8077V0H30.7661C26.7452 0 23.4744 3.27083 23.4744 7.29167V10.1917L15.6557 20.8333H0.555664V22.9167H16.7077L25.5557 10.875V7.29167C25.5557 4.775 27.3473 2.67292 29.7223 2.1875V8.33333H33.3202C35.3577 8.33333 37.2744 9.23125 38.5786 10.7979L39.0557 11.3708C40.7577 13.4125 43.2577 14.5833 45.914 14.5833H48.4702V19.7917C48.4702 23.8125 45.1994 27.0833 41.1786 27.0833H38.764C39.6223 27.7 40.3827 28.3958 41.0432 29.1667H41.1786C46.3473 29.1667 50.5536 24.9604 50.5536 19.7917V12.5H45.914H45.9161ZM33.889 37.5C33.889 36.35 32.9557 35.4167 31.8057 35.4167C30.6557 35.4167 29.7223 36.35 29.7223 37.5C29.7223 38.65 30.6557 39.5833 31.8057 39.5833C32.9557 39.5833 33.889 38.65 33.889 37.5ZM35.9723 16.6667C37.1223 16.6667 38.0557 15.7333 38.0557 14.5833C38.0557 13.4333 37.1223 12.5 35.9723 12.5C34.8223 12.5 33.889 13.4333 33.889 14.5833C33.889 15.7333 34.8223 16.6667 35.9723 16.6667Z" fill="black"/>
</g>
<defs>
<clipPath id="clip0_353_1406">
<rect width="50" height="50" fill="white" transform="translate(0.555664)"/>
</clipPath>
</defs>
</svg>
