<svg width="51" height="50" viewBox="0 0 51 50" fill="none" xmlns="http://www.w3.org/2000/svg">
<g clip-path="url(#clip0_353_1405)">
<path d="M50.667 17.7083C50.667 14.8375 48.3316 12.5 45.4587 12.5C42.5857 12.5 40.2503 14.8375 40.2503 17.7083C40.2503 20.2229 42.042 22.3271 44.417 22.8125V33.3333C44.417 41.375 37.8732 47.9167 29.8337 47.9167C21.7941 47.9167 15.2503 41.375 15.2503 33.3333V31.2104C22.2316 30.6771 27.7503 24.825 27.7503 17.7083V5.20833C27.7503 2.3375 25.4149 0 22.542 0H17.3337V2.08333H22.542C24.2649 2.08333 25.667 3.48542 25.667 5.20833V17.7083C25.667 24.0271 20.5253 29.1667 14.2087 29.1667C7.89199 29.1667 2.75033 24.0271 2.75033 17.7083V5.20833C2.75033 3.48542 4.15241 2.08333 5.87533 2.08333H11.0837V0H5.87533C3.00241 0 0.666992 2.3375 0.666992 5.20833V17.7083C0.666992 24.825 6.18574 30.6771 13.167 31.2104V33.3333C13.167 42.5229 20.6441 50 29.8337 50C39.0232 50 46.5003 42.5229 46.5003 33.3333V22.8125C48.8753 22.3292 50.667 20.225 50.667 17.7083ZM45.4587 20.8333C43.7357 20.8333 42.3337 19.4312 42.3337 17.7083C42.3337 15.9854 43.7357 14.5833 45.4587 14.5833C47.1816 14.5833 48.5837 15.9854 48.5837 17.7083C48.5837 19.4312 47.1816 20.8333 45.4587 20.8333Z" fill="black"/>
</g>
<defs>
<clipPath id="clip0_353_1405">
<rect width="50" height="50" fill="white" transform="translate(0.666992)"/>
</clipPath>
</defs>
</svg>
