<svg width="44" height="44" viewBox="0 0 44 44" fill="none" xmlns="http://www.w3.org/2000/svg">
<g clip-path="url(#clip0_353_1453)">
<path d="M44.0381 34.8333V11C44.0381 7.96767 41.5704 5.5 38.5381 5.5H5.53809C2.50575 5.5 0.0380859 7.96767 0.0380859 11V34.8333H20.2048V36.6667H12.8714V40.3333H31.2048V36.6667H23.8714V34.8333H44.0381ZM3.70475 11C3.70475 9.98983 4.52792 9.16667 5.53809 9.16667H38.5381C39.5483 9.16667 40.3714 9.98983 40.3714 11V31.1667H3.70475V11ZM23.8714 18.3333H29.3714V22H23.8714V27.5H20.2048V22H14.7048V18.3333H20.2048V12.8333H23.8714V18.3333Z" fill="black" stroke="white"/>
</g>
<defs>
<clipPath id="clip0_353_1453">
<rect width="44" height="44" fill="white"/>
</clipPath>
</defs>
</svg>
