<svg width="44" height="44" viewBox="0 0 44 44" fill="none" xmlns="http://www.w3.org/2000/svg">
<g clip-path="url(#clip0_353_1456)">
<path d="M41.25 16.5H40.3333V14.6667C40.3333 9.61217 36.2212 5.5 31.1667 5.5H23.8333V1.83333C23.8333 0.821333 23.0138 0 22 0C20.9862 0 20.1667 0.821333 20.1667 1.83333V5.5H12.8333C7.77883 5.5 3.66667 9.61217 3.66667 14.6667V16.5H2.75C1.23383 16.5 0 17.7338 0 19.25V24.75C0 26.2662 1.23383 27.5 2.75 27.5H3.66667V29.3333C3.66667 34.3878 7.77883 38.5 12.8333 38.5H26.9445L34.21 43.3437C34.87 43.7837 35.6308 44.0055 36.3935 44.0055C37.0315 44.0055 37.6695 43.8515 38.2543 43.538C39.5358 42.8505 40.3333 41.5213 40.3333 40.0657V27.4982H41.25C42.7662 27.4982 44 26.2643 44 24.7482V19.2482C44 17.732 42.7662 16.4982 41.25 16.4982V16.5ZM36.6667 40.0675C36.6667 40.1078 36.6667 40.2307 36.5237 40.3058C36.377 40.3847 36.2743 40.3132 36.245 40.293L28.5175 35.1413C28.2168 34.9415 27.863 34.8333 27.5 34.8333H12.8333C9.801 34.8333 7.33333 32.3657 7.33333 29.3333V14.6667C7.33333 11.6343 9.801 9.16667 12.8333 9.16667H31.1667C34.199 9.16667 36.6667 11.6343 36.6667 14.6667V40.0675ZM12.8333 17.4167C12.8333 15.8987 14.0653 14.6667 15.5833 14.6667C17.1013 14.6667 18.3333 15.8987 18.3333 17.4167C18.3333 18.9347 17.1013 20.1667 15.5833 20.1667C14.0653 20.1667 12.8333 18.9347 12.8333 17.4167ZM31.1667 17.4167C31.1667 18.9347 29.9347 20.1667 28.4167 20.1667C26.8987 20.1667 25.6667 18.9347 25.6667 17.4167C25.6667 15.8987 26.8987 14.6667 28.4167 14.6667C29.9347 14.6667 31.1667 15.8987 31.1667 17.4167ZM30.8862 26.0242C31.4252 26.8822 31.1648 28.0133 30.3087 28.5505C28.4075 29.744 25.421 31.1667 22.0018 31.1667C18.5827 31.1667 15.5962 29.744 13.695 28.5505C12.837 28.0133 12.5785 26.8803 13.1175 26.0242C13.6565 25.168 14.7877 24.9077 15.6438 25.4448C17.138 26.3835 19.4553 27.5 22.0037 27.5C24.552 27.5 26.8675 26.3835 28.3635 25.4448C29.2178 24.9058 30.3527 25.1662 30.8898 26.0242H30.8862Z" fill="black"/>
</g>
<defs>
<clipPath id="clip0_353_1456">
<rect width="44" height="44" fill="white"/>
</clipPath>
</defs>
</svg>
