<svg width="44" height="44" viewBox="0 0 44 44" fill="none" xmlns="http://www.w3.org/2000/svg">
<g clip-path="url(#clip0_353_1454)">
<path d="M43.4858 40.8956L32.5516 29.9614C35.5313 26.3171 36.9963 21.667 36.6436 16.9729C36.2909 12.2788 34.1475 7.89983 30.6567 4.74174C27.1659 1.58365 22.5949 -0.111923 17.889 0.00573837C13.1831 0.1234 8.70249 2.04529 5.37389 5.37389C2.04529 8.70249 0.1234 13.1831 0.00573837 17.889C-0.111923 22.5949 1.58365 27.1659 4.74174 30.6567C7.89983 34.1475 12.2788 36.2909 16.9729 36.6436C21.667 36.9963 26.3171 35.5313 29.9614 32.5516L40.8956 43.4858C41.2411 43.8195 41.7038 44.0041 42.1841 43.9999C42.6644 43.9958 43.1238 43.8031 43.4635 43.4635C43.8031 43.1238 43.9958 42.6644 43.9999 42.1841C44.0041 41.7038 43.8195 41.2411 43.4858 40.8956ZM18.3769 33.0315C15.4785 33.0315 12.6452 32.1721 10.2352 30.5618C7.8253 28.9515 5.94698 26.6628 4.83781 23.985C3.72863 21.3072 3.43842 18.3607 4.00387 15.5179C4.56933 12.6752 5.96504 10.064 8.01453 8.01453C10.064 5.96504 12.6752 4.56933 15.5179 4.00387C18.3607 3.43842 21.3072 3.72863 23.985 4.83781C26.6628 5.94698 28.9515 7.8253 30.5618 10.2352C32.1721 12.6452 33.0315 15.4785 33.0315 18.3769C33.0272 22.2622 31.4818 25.9872 28.7345 28.7345C25.9872 31.4818 22.2622 33.0272 18.3769 33.0315Z" fill="black"/>
</g>
<defs>
<clipPath id="clip0_353_1454">
<rect width="44" height="44" fill="white"/>
</clipPath>
</defs>
</svg>
