<svg width="32" height="32" viewBox="0 0 32 32" fill="none" xmlns="http://www.w3.org/2000/svg">
<path d="M8.00065 2.6665H14.0233C13.8892 2.76011 13.7622 2.86351 13.6433 2.97583L7.04332 9.57583C6.7926 9.82655 6.65175 10.1666 6.65175 10.5212C6.65175 10.8757 6.7926 11.2158 7.04332 11.4665C7.29403 11.7172 7.63408 11.8581 7.98865 11.8581C8.34322 11.8581 8.68327 11.7172 8.93398 11.4665L14.6673 5.73316V30.6252C14.6673 30.9788 14.8078 31.3179 15.0578 31.568C15.3079 31.818 15.647 31.9585 16.0007 31.9585C16.3543 31.9585 16.6934 31.818 16.9435 31.568C17.1935 31.3179 17.334 30.9788 17.334 30.6252V5.72383L23.0673 11.4665C23.3188 11.7094 23.6556 11.8438 24.0052 11.8407C24.3548 11.8377 24.6892 11.6975 24.9364 11.4503C25.1836 11.203 25.3238 10.8686 25.3269 10.519C25.3299 10.1694 25.1955 9.83263 24.9527 9.58116L18.3527 2.98116C18.2338 2.86884 18.1068 2.76545 17.9727 2.67183H24.0007C24.3543 2.67183 24.6934 2.53135 24.9435 2.28131C25.1935 2.03126 25.334 1.69212 25.334 1.3385C25.334 0.984873 25.1935 0.645737 24.9435 0.395687C24.6934 0.145639 24.3543 0.00516129 24.0007 0.00516129H8.00065C7.64703 0.00516129 7.30789 0.145639 7.05784 0.395687C6.80779 0.645737 6.66732 0.984873 6.66732 1.3385C6.66732 1.69212 6.80779 2.03126 7.05784 2.28131C7.30789 2.53135 7.64703 2.67183 8.00065 2.67183V2.6665Z" fill="black"/>
</svg>
