<svg width="44" height="44" viewBox="0 0 44 44" fill="none" xmlns="http://www.w3.org/2000/svg">
<g clip-path="url(#clip0_353_1455)">
<path d="M7.08755 34.7692C6.74655 35.3558 6.13238 35.6858 5.49805 35.6858C5.18638 35.6858 4.87105 35.607 4.58138 35.4402C1.75438 33.8048 -0.00195312 30.7633 -0.00195312 27.5V12.8333C-0.000119792 7.77883 4.11205 3.66667 9.16655 3.66667V1.83333C9.16655 0.821333 9.98788 0 10.9999 0C12.0119 0 12.8332 0.821333 12.8332 1.83333V3.66667H25.6665V1.83333C25.6665 0.821333 26.486 0 27.4999 0C28.5137 0 29.3332 0.821333 29.3332 1.83333V3.66667C34.3877 3.66667 38.4999 7.77883 38.4999 12.8333V27.5C38.4999 28.512 37.6804 29.3333 36.6665 29.3333C35.6527 29.3333 34.8332 28.512 34.8332 27.5V16.5H32.9999C31.986 16.5 31.1665 15.6787 31.1665 14.6667C31.1665 13.6547 31.986 12.8333 32.9999 12.8333H34.8332C34.8332 9.801 32.3655 7.33333 29.3332 7.33333H9.16655C6.13421 7.33333 3.66655 9.801 3.66655 12.8333H18.3332C19.3452 12.8333 20.1665 13.6547 20.1665 14.6667C20.1665 15.6787 19.3452 16.5 18.3332 16.5H3.66655V27.5C3.66655 29.458 4.72071 31.284 6.41655 32.2648C7.29288 32.7708 7.59538 33.8928 7.08755 34.7692ZM38.0562 34.0633L31.183 31.4948V22.2457C31.183 19.4663 29.2104 17.05 26.5942 16.6247C24.979 16.3625 23.3529 16.8117 22.1227 17.8585C20.8907 18.9053 20.183 20.4343 20.183 22.0495V35.915L18.3222 34.4337C18.3094 34.4227 18.2929 34.4227 18.28 34.4117C16.0599 32.4812 12.6902 32.6242 10.6662 34.7912C8.59455 37.0058 8.71188 40.4928 10.9045 42.5462L11.9275 43.5325C12.2685 43.8625 12.725 44.0458 13.1999 44.0458C14.8499 44.0458 15.6602 42.0383 14.4722 40.8925L13.4309 39.8878C12.692 39.1948 12.6535 38.0307 13.3465 37.2918C14.034 36.5548 15.1945 36.52 15.9315 37.2038C15.9499 37.2203 20.876 41.1473 20.876 41.1473C21.4279 41.5873 22.1832 41.6698 22.8139 41.3655C23.4482 41.0593 23.8515 40.4177 23.8515 39.7137V22.044C23.8515 21.505 24.088 20.9953 24.4987 20.6452C24.9167 20.2913 25.4484 20.1447 26.0057 20.2363C26.8545 20.3757 27.5182 21.2557 27.5182 22.2402V32.7617C27.5182 33.5262 27.993 34.2118 28.7099 34.4795L36.7747 37.4935C38.7987 38.2488 40.1957 40.1298 40.3369 42.2822C40.401 43.252 41.2077 43.9963 42.1647 43.9963C42.205 43.9963 42.2454 43.9963 42.2857 43.9927C43.2959 43.9248 44.0622 43.0522 43.9962 42.0438C43.7597 38.4542 41.4295 35.321 38.0562 34.0633Z" fill="black"/>
</g>
<defs>
<clipPath id="clip0_353_1455">
<rect width="44" height="44" fill="white"/>
</clipPath>
</defs>
</svg>
